<mxfile host="app.diagrams.net" modified="2023-05-12T15:13:59.703Z" agent="Mozilla/5.0 (Windows NT 10.0; Win64; x64) AppleWebKit/537.36 (KHTML, like Gecko) Chrome/113.0.0.0 Safari/537.36" etag="km-fmzlYdJKk6A7uFUPW" version="21.2.9" type="device">
  <diagram name="Page-1" id="S3jDodOiqY2xIqbLUVzr">
    <mxGraphModel dx="1050" dy="562" grid="1" gridSize="10" guides="1" tooltips="1" connect="1" arrows="1" fold="1" page="1" pageScale="1" pageWidth="850" pageHeight="1100" math="0" shadow="0">
      <root>
        <mxCell id="0" />
        <mxCell id="1" parent="0" />
        <mxCell id="iWtZt-pD6bIXrXz8mVgg-1" value="SAFEPLACE SYSTEM&lt;br&gt;" style="ellipse;whiteSpace=wrap;html=1;aspect=fixed;" vertex="1" parent="1">
          <mxGeometry x="380" y="240" width="130" height="130" as="geometry" />
        </mxCell>
        <mxCell id="iWtZt-pD6bIXrXz8mVgg-2" value="USERS" style="rounded=0;whiteSpace=wrap;html=1;" vertex="1" parent="1">
          <mxGeometry x="120" y="140" width="120" height="60" as="geometry" />
        </mxCell>
        <mxCell id="iWtZt-pD6bIXrXz8mVgg-3" value="" style="endArrow=classic;html=1;rounded=0;exitX=1;exitY=0.25;exitDx=0;exitDy=0;" edge="1" parent="1" source="iWtZt-pD6bIXrXz8mVgg-2" target="iWtZt-pD6bIXrXz8mVgg-1">
          <mxGeometry width="50" height="50" relative="1" as="geometry">
            <mxPoint x="400" y="310" as="sourcePoint" />
            <mxPoint x="450" y="260" as="targetPoint" />
            <Array as="points">
              <mxPoint x="320" y="150" />
              <mxPoint x="360" y="150" />
              <mxPoint x="400" y="180" />
            </Array>
          </mxGeometry>
        </mxCell>
        <mxCell id="iWtZt-pD6bIXrXz8mVgg-4" value="" style="endArrow=classic;html=1;rounded=0;exitX=-0.003;exitY=0.64;exitDx=0;exitDy=0;exitPerimeter=0;entryX=0.45;entryY=1.067;entryDx=0;entryDy=0;entryPerimeter=0;" edge="1" parent="1" source="iWtZt-pD6bIXrXz8mVgg-1" target="iWtZt-pD6bIXrXz8mVgg-2">
          <mxGeometry width="50" height="50" relative="1" as="geometry">
            <mxPoint x="380" y="310" as="sourcePoint" />
            <mxPoint x="160" y="210" as="targetPoint" />
            <Array as="points">
              <mxPoint x="240" y="330" />
              <mxPoint x="180" y="290" />
            </Array>
          </mxGeometry>
        </mxCell>
        <mxCell id="iWtZt-pD6bIXrXz8mVgg-5" value="input comment about safety of place" style="rounded=0;whiteSpace=wrap;html=1;" vertex="1" parent="1">
          <mxGeometry x="330" y="150" width="120" height="60" as="geometry" />
        </mxCell>
        <mxCell id="iWtZt-pD6bIXrXz8mVgg-6" value="read comments about safety of a place" style="rounded=0;whiteSpace=wrap;html=1;" vertex="1" parent="1">
          <mxGeometry x="160" y="290" width="120" height="60" as="geometry" />
        </mxCell>
      </root>
    </mxGraphModel>
  </diagram>
</mxfile>
